<svg width="48" height="60" viewBox="0 0 48 60" fill="none" xmlns="http://www.w3.org/2000/svg">
<path d="M44.887 7.3304C44.6966 7.1876 44.411 7.14 44.173 7.2352L3.90336 17.0408C3.14176 17.2312 2.57056 17.8024 2.42776 18.564C2.28496 19.3256 2.57056 20.0872 3.18936 20.6108L13.2806 27.4652L14.2326 39.6984C14.2326 39.746 14.2326 39.7936 14.2802 39.8412C14.2802 39.8888 14.2802 39.8888 14.3278 39.9364C14.3754 40.0316 14.423 40.0792 14.4706 40.1268C14.4706 40.1268 14.4706 40.1268 14.4706 40.1744C14.5182 40.222 14.6134 40.3172 14.7086 40.3172C14.7562 40.3172 14.7562 40.3172 14.8038 40.3648C14.8514 40.3648 14.899 40.4124 14.9466 40.4124C14.9942 40.4124 14.9942 40.4124 15.0418 40.4124C15.137 40.4124 15.2322 40.4124 15.2798 40.3648C15.3274 40.3648 15.3274 40.3172 15.3274 40.3172C15.375 40.2696 15.4226 40.2696 15.4702 40.222C15.4702 40.222 15.4702 40.222 15.5178 40.222L22.3246 33.7484L31.1306 39.6508C31.1306 39.6508 31.1782 39.6508 31.1782 39.6984C31.4638 39.8888 31.797 39.9364 32.1778 39.9364C32.4158 39.9364 32.6538 39.8888 32.8918 39.7936C33.463 39.6032 33.8914 39.1748 34.0818 38.6036L45.2678 8.1872C45.2678 7.9016 45.1726 7.5208 44.887 7.3304ZM17.4218 29.3216C17.279 29.4168 17.1838 29.6072 17.1838 29.7976C17.1838 29.7976 17.1838 29.8452 17.1362 29.8452L15.4226 35.6048L14.8514 27.7984L34.5578 15.1844L17.4218 29.3216ZM3.85576 18.8972C3.85576 18.802 3.95096 18.564 4.23656 18.4688L40.3174 9.7104L14.2802 26.3704L4.04616 19.4208C3.80816 19.2304 3.85576 18.9924 3.85576 18.8972ZM16.4698 37.1756L18.3262 31.0828L20.9918 32.8916L16.4698 37.1756ZM32.6062 38.08C32.511 38.2704 32.3682 38.3656 32.273 38.3656C32.1778 38.4132 32.035 38.4132 31.8446 38.3656L19.1354 29.7976L42.7926 10.2816L32.6062 38.08Z" fill="#DCDCDC"/>
</svg>
