<svg width="48" height="48" viewBox="0 0 48 48" fill="none" xmlns="http://www.w3.org/2000/svg">
<path d="M0 24C0 10.74 10.74 0 24 0C37.26 0 48 10.74 48 24C48 37.26 37.26 48 24 48C10.74 48 0 37.26 0 24Z" fill="url(#paint0_linear)"/>
<path opacity="0.12" d="M20.3519 19.068L28.0199 24.192L29.0999 23.64L20.3519 19.068Z" fill="black"/>
<path d="M39.7439 17.412C39.7439 17.412 39.4319 15.18 38.4599 14.196C37.2359 12.9 35.8439 12.9 35.2199 12.828C30.6839 12.504 23.8919 12.504 23.8919 12.504H23.8799C23.8799 12.504 17.0879 12.504 12.5519 12.828C11.9159 12.9 10.5359 12.912 9.31186 14.196C8.33986 15.18 8.02786 17.412 8.02786 17.412C8.02786 17.412 7.70386 20.028 7.70386 22.656V25.116C7.70386 27.732 8.02786 30.36 8.02786 30.36C8.02786 30.36 8.33986 32.592 9.31186 33.576C10.5479 34.872 12.1559 34.824 12.8759 34.956C15.4679 35.208 23.8799 35.28 23.8799 35.28C23.8799 35.28 30.6839 35.268 35.2199 34.944C35.8559 34.872 37.2359 34.86 38.4599 33.576C39.4319 32.592 39.7439 30.36 39.7439 30.36C39.7439 30.36 40.0679 27.744 40.0679 25.116V22.656C40.0679 20.028 39.7439 17.412 39.7439 17.412ZM20.5319 28.08V18.984L29.2799 23.544L20.5319 28.08Z" fill="white"/>
<defs>
<linearGradient id="paint0_linear" x1="24" y1="0" x2="24" y2="48" gradientUnits="userSpaceOnUse">
<stop stop-color="#E52D27"/>
<stop offset="1" stop-color="#BF171D"/>
</linearGradient>
</defs>
</svg>
