<svg width="48" height="48" viewBox="0 0 48 48" fill="none" xmlns="http://www.w3.org/2000/svg">
<circle cx="24" cy="24" r="24" fill="#0077B5"/>
<path d="M18.383 35.3265H13.3018V19.0969H18.2889V35.3265H18.383ZM15.8424 16.8323C14.2428 16.8323 12.9254 15.5113 12.9254 13.9072C12.9254 12.3031 14.2428 11.0765 15.8424 11.0765C17.4421 11.0765 18.7594 12.3975 18.7594 14.0016C18.7594 15.6057 17.4421 16.8323 15.8424 16.8323ZM37.2023 35.3265H32.2152V27.4004C32.2152 25.5132 32.2152 23.0599 29.5805 23.0599C26.9458 23.0599 26.5694 25.1358 26.5694 27.2117V35.2321H21.4882V19.0969H26.2871V21.2671H26.3812C27.0399 19.9461 28.7336 18.6251 31.1802 18.6251C36.2614 18.6251 37.2023 22.022 37.2023 26.3625V35.3265Z" fill="white"/>
</svg>
